<?xml version="1.0" encoding="UTF-8" standalone="no"?>
<!DOCTYPE svg PUBLIC "-//W3C//DTD SVG 1.1//EN" "http://www.w3.org/Graphics/SVG/1.1/DTD/svg11.dtd">
<svg version="1.1" xmlns="http://www.w3.org/2000/svg" xmlns:xlink="http://www.w3.org/1999/xlink" preserveAspectRatio="xMidYMid meet" viewBox="0 0 640 640" width="640" height="640"><defs><path d="M296.51 313.36C248.83 350.85 219.04 374.28 207.12 383.65C196.6 391.93 183.6 396.42 170.22 396.42C165.96 396.42 172.85 396.42 168.34 396.42C158.14 396.42 150.34 387.33 151.9 377.26C152.46 373.61 151.16 382.06 151.71 378.47C153.63 366.03 160.41 354.87 170.56 347.43C184.07 337.54 217.85 312.8 271.91 273.21" id="eztLmlMoY"></path><path d="M187.98 349.35L201.01 364.58" id="a1VdzZUsib"></path><path d="M258.89 336.89C255.23 335.17 252.94 334.09 252.03 333.66C244.97 330.33 239.6 324.24 237.18 316.82C237.18 316.82 237.18 316.82 237.18 316.82" id="b1LOLUHDO"></path><path d="M263.23 329.97C262.87 328.53 262.65 327.63 262.56 327.27C259.89 316.4 252.01 307.57 241.52 303.67C241.52 303.67 241.52 303.67 241.52 303.67" id="i182fayCFb"></path><path d="M258.89 329.97C258.89 329.97 258.89 329.97 258.89 329.97C250.54 323.52 243.61 315.41 238.54 306.16C238.36 305.83 237.91 305 237.18 303.67" id="a3byTaz3g"></path><path d="M306.64 364.58C259.67 398.76 230.31 420.12 218.57 428.67C209.33 435.39 197.47 437.41 186.53 434.11C183.93 433.33 191.45 435.59 188.34 434.65C179.54 432 173.51 423.9 173.51 414.71C173.51 412.99 173.51 421.82 173.51 419.72C173.51 411.19 177.65 403.18 184.62 398.25C187.96 395.89 196.32 389.97 209.69 380.5" id="a96QfvFo"></path><path d="M241.52 403.35C241.52 403.35 241.52 403.35 241.52 403.35C233.92 398.87 228.13 391.88 225.14 383.58C225 383.17 224.63 382.14 224.04 380.5" id="d1iHQhhlFg"></path><path d="M248.03 400.05C247.76 399.9 247.59 399.81 247.52 399.78C238.45 394.94 232.78 385.5 232.78 375.22C232.78 375.1 232.78 374.78 232.78 374.27" id="a69pcKzQj7"></path><path d="M252.37 396.42C252.33 396.24 252.3 396.13 252.28 396.09C249.51 385.93 243.77 376.83 235.8 369.96C235.4 369.61 234.39 368.74 232.78 367.35" id="a2t7LIPjwU"></path><path d="M258.89 391.93C258.89 391.93 258.89 391.93 258.89 391.93C258.89 384.54 256.32 377.39 251.62 371.69C251.14 371.11 249.94 369.67 248.03 367.35" id="c2g6KzK4EO"></path><path d="M237.44 422.72L239.82 427.27L242.99 432.2L246.96 437.52L251.32 442.45" id="b1ddJSS7iY"></path><path d="M242.59 417.41L245.37 422.72L247.75 427.27L251.71 431.45L255.28 435.62L258.85 439.03" id="a7KhkA1HLf"></path><path d="M249.73 414.38L254.88 418.55L258.06 422.72L260.44 426.89L263.21 431.45" id="airxJHDI8"></path><path d="M361.14 419.65C329.14 439.71 309.14 452.25 301.14 457.26C292.1 462.93 281.48 465.54 270.84 464.71C269.16 464.58 272.53 464.84 268.86 464.56C264.69 464.23 260.74 462.58 257.58 459.83C256.51 458.9 258.6 460.72 257.64 459.88C254.57 457.21 254.03 452.65 256.39 449.34C256.76 448.83 257.66 447.56 259.12 445.52" id="c2Wt4Fwkqv"></path><path d="M256.07 449.27L261.62 451.02L266.74 454.93L271 459.28L273.56 464.5" id="a142d7lT1N"></path><path d="M175.59 411.34L179.16 414.76L182.73 418.17L186.29 423.1L188.67 427.27L191.85 431.83" id="bp2P5IsqF"></path><path d="M153.78 369.99L158.94 373.03L164.49 377.2L168.06 381.75L171.23 387.06L172.81 391.62" id="e5P0FTmil"></path><path d="M590.7 228.88L485.24 238.74C484.48 241.43 484.01 243.11 483.83 243.78C481.98 250.34 476.96 255.54 470.47 257.61C469.22 258.01 473.32 256.71 471.43 257.31C466.77 258.79 461.74 258.61 457.21 256.78C443.39 251.2 416.63 240.4 404.74 235.59C393.88 231.21 381.98 230.08 370.5 232.33C361.25 234.15 343.67 237.59 332.56 239.77C327.07 240.85 321.82 242.88 317.04 245.77C310.81 249.54 295.25 258.95 270.35 274.02" id="e3laHIIq2j"></path><path d="M296.79 427.27L300.36 433.34L303.14 437.52L306.71 440.93" id="e1yqhorLVl"></path><path d="M302.74 423.1L306.71 426.51L310.67 431.45L313.05 435.62" id="a1Lq7XpOHa"></path><path d="" id="a16HNYaNik"></path><path d="M333.86 394.27L254.97 449.9C247.95 453.72 243.56 456.11 241.81 457.07C239.75 458.19 237.55 459.05 235.28 459.64C233.39 460.12 236.09 459.43 235.44 459.6C229.28 461.18 222.74 460.25 217.28 457C216.11 456.31 216.82 456.73 214.57 455.4C212.54 454.19 210.96 452.36 210.05 450.18C209.34 448.45 210.06 450.19 209.72 449.36C207.71 444.51 208.37 438.97 211.45 434.73C211.45 434.73 211.45 434.73 211.45 434.73L220.86 427.9" id="i3Mlowii7"></path><path d="" id="aLiuuB65P"></path><path d="M374.99 424.64C372.77 417.45 371.38 412.96 370.83 411.16C369.23 406 368.61 400.58 368.98 395.19C369.12 393.23 369.46 388.34 370 380.5C370.41 378.04 370.67 376.5 370.77 375.88C371.77 369.92 375.82 364.92 381.44 362.71C382.32 362.36 379.51 363.47 381.3 362.77C384.16 361.64 387.4 361.95 390 363.61C390.84 364.14 389.29 363.15 390.14 363.7C392.77 365.37 394.76 367.86 395.82 370.79C396.21 371.86 395.83 370.82 396.24 371.96C397.23 374.7 397.48 377.65 396.95 380.52C396.4 383.51 396.08 385.24 395.66 387.51C394.69 392.74 395.11 398.12 396.85 403.14C397.03 403.66 395.47 399.16 395.79 400.08C397.08 403.79 397.5 407.76 397.01 411.67C395.81 421.26 393.04 443.48 391.86 452.92C391.31 457.26 389.23 461.26 385.98 464.2C385.33 464.8 387.76 462.6 386.94 463.33C384.2 465.81 380.65 467.18 376.96 467.18C374.78 467.18 377.53 467.18 376.24 467.18C369.48 467.18 362.76 466.25 356.27 464.42C350.22 462.71 335.11 458.45 310.93 451.63" id="d4ToMdFwCi"></path><path d="" id="f8qZw1vbZJ"></path><path d="M359.15 442.23C359.15 437.56 359.15 434.64 359.15 433.47C359.15 426.15 361.5 419.03 365.86 413.15C366.41 412.41 367.79 410.55 370 407.57" id="e4PPYSqOg"></path><path d="M394.19 369.69L389.66 371.86L386.82 376.47L384.84 381.07L384.27 386.76L384.56 391.91L385.41 396.79L389.94 399.23L395.04 398.41" id="o17Dzfxfem"></path><path d="M380.59 419.82L385.97 418.46L391.35 418.46" id="c1kfutE4l3"></path><path d="M385.97 424.15L391.07 424.15" id="bqcQlJyM7"></path><path d="M381.44 427.95L386.54 429.03L391.64 429.03" id="g1wYkPT1Pz"></path><path d="M397.22 374.27C396.8 372.2 396.53 370.91 396.43 370.39C395.5 365.85 395.04 361.22 395.04 356.58C395.04 354.51 395.04 357.98 395.04 356.58C395.04 350.34 398.88 344.74 404.7 342.49C404.98 342.38 401.08 343.88 402.59 343.3C404.83 342.43 407.32 342.46 409.54 343.37C410.93 343.94 411.47 344.16 412.82 344.71C415.21 345.69 417.24 347.38 418.65 349.55C420 351.63 419.92 351.51 420.77 352.83C423.81 357.51 425.59 362.9 425.95 368.47C426.33 374.62 426.83 382.43 427.18 388.05C427.65 395.48 427.3 402.94 426.15 410.29C424.87 418.39 422.65 432.49 421.34 440.81C420.3 447.39 417.84 453.65 414.12 459.17C412.74 461.22 415.12 457.69 413.95 459.42C410.04 465.22 402.57 467.43 396.13 464.69C395.11 464.26 392.58 463.17 388.52 461.44" id="a14JMaBu9"></path><path d="M416.32 346.77L411.04 346.46L405.75 346.46L402.12 349.93L402.45 354.68L403.11 359.73L404.43 364.48L408.72 367.64L413.02 370.17L417.98 370.8L422.6 368.9L425.24 364.79" id="a2ss4hPJIb"></path><path d="M408.06 393.24L413.68 391.98L418.64 391.66" id="a3o9cNql31"></path><path d="M408.06 396.72L413.68 395.77L419.96 395.45" id="c3IPsUPgIZ"></path><path d="M406.41 400.05L411.37 401L416.65 402.26L421.61 400.68" id="c39B1OxtWh"></path><path d="M424.24 358.63C424.48 353.91 424.63 350.96 424.68 349.78C425.04 342.78 428.73 336.37 434.6 332.56C435.8 331.78 433.71 333.14 435.82 331.77C438.74 329.88 442.48 329.83 445.45 331.63C447.75 333.03 444.87 331.28 445.94 331.93C452.96 336.2 457.87 343.22 459.48 351.27C460 353.88 461.31 360.39 463.39 370.8C464.59 385.84 465.34 395.24 465.64 399C466.43 408.97 463.89 418.92 458.42 427.29C453.76 434.4 447.13 444.55 442.19 452.09C438.21 458.18 430.22 460.18 423.84 456.7C423.15 456.32 421.41 455.37 418.64 453.86" id="cvWZxTsPK"></path><path d="M446.54 333.3L438.61 339L432.17 346.02L438.61 353.47L446.05 359.61L455.96 357.42L458.44 348.65" id="b1lxCO78HH"></path><path d="M435.14 398.85L445.06 396.48L454.97 396.96" id="c4uUS2Z5HQ"></path><path d="M437.62 404.07L448.52 404.07L458.93 404.07" id="b6zxEH8UWh"></path><path d="M436.63 407.86L445.55 412.6L456.45 413.55" id="bXN7en0W6"></path><path d="M454.97 435.51C458.47 437.28 460.67 438.39 461.54 438.83C464.19 440.16 467.3 440.23 470 439.01C471.56 438.31 470.26 438.89 471.4 438.38C475.48 436.54 478.7 433.19 480.38 429.04C481.16 427.12 483.09 422.33 486.19 414.66C491.06 401.36 494.1 393.04 495.32 389.71C497.32 384.25 496.07 378.13 492.1 373.88C491.31 373.04 494.38 376.33 493.34 375.21C490.08 371.73 485.39 369.99 480.66 370.49C480.08 370.55 485.07 370.02 484.29 370.1C480.04 370.56 476.01 372.26 472.73 375C471.8 375.78 469.48 377.71 465.78 380.8" id="b5z9TzHb5L"></path><path d="M494.12 386.52L483.71 385.58L473.8 388.9L471.82 398.38L478.26 405.97L487.68 409.28" id="a1bxw4CHPJ"></path><path d="M633.1 394.27C585.61 405.69 555.93 412.84 544.05 415.69C539.36 416.82 534.54 417.35 529.71 417.27C523.49 417.16 507.91 416.89 483 416.45" id="aJxxkDHeh"></path><path d="M483.24 244.05C488.97 244.89 492.55 245.42 493.99 245.63C498.05 246.23 501.57 248.74 503.45 252.39C504.18 253.82 504.29 254.04 505.25 255.9C506.49 258.3 507.37 260.87 507.87 263.53C511.09 280.67 519.64 326.22 522.77 342.89C523.55 347.02 525.48 350.84 528.35 353.9C529.65 355.28 532.88 358.74 538.06 364.26C532.88 367.49 529.65 369.51 528.35 370.32C526.27 371.61 524.72 373.6 523.95 375.93C521.68 382.82 518.16 393.49 516.42 398.78C514.2 405.53 507.52 409.76 500.47 408.89C498.59 408.66 493.88 408.08 486.36 407.15" id="g8bgMnm3TY"></path><path d="M608.27 375.01L556.06 384.66L538.06 364.58" id="ahJHSRzSa"></path><path d="M573.52 364.58C553.76 306.9 541.41 270.85 536.46 256.43C535.34 253.15 533.56 250.12 531.23 247.54C530.21 246.41 530.71 246.97 529.7 245.85C527.37 243.27 524.35 241.42 521 240.52C519.33 240.07 515.16 238.95 508.49 237.16" id="g35QcHjEPr"></path><path d="M547.46 392.45C547.46 397.99 542.6 402.49 536.61 402.49C530.62 402.49 525.75 397.99 525.75 392.45C525.75 386.91 530.62 382.41 536.61 382.41C542.6 382.41 547.46 386.91 547.46 392.45Z" id="g5N7lqINdb"></path><path d="M381.44 205.32C381.83 208.74 382.07 210.88 382.16 211.73C382.62 215.84 384 219.78 386.19 223.28C386.65 224.03 384.95 221.31 385.47 222.14C387.47 225.33 390.26 227.96 393.57 229.75C394.71 230.37 397.56 231.92 402.12 234.39" id="ds6sDxKzg"></path><path d="M203.54 268.53C207.83 254.5 210.51 245.73 211.58 242.22C214.72 231.93 221.74 223.26 231.15 218.04C237.57 214.48 248.66 208.33 256.71 203.87C261.05 201.46 265.56 199.37 270.19 197.6C278.34 194.51 295.57 187.96 303.65 184.88C303.65 184.88 318.05 178.98 318.05 178.98C322.74 176.91 323.76 176.46 326.97 175.05C336.35 170.92 346.91 170.32 356.7 173.35C359.72 174.29 354.62 172.71 357.89 173.72C367.15 176.59 376.63 178.69 386.23 179.98C389.5 180.42 384.39 179.73 387.54 180.15C387.54 180.15 417.31 185.81 417.31 185.81C421.37 186.81 420.52 186.6 425.01 187.71C433.14 189.71 440.26 194.6 445.06 201.46C446.23 203.14 442.06 197.17 443.17 198.76C448.26 206.05 455.02 212.03 462.88 216.19C465.93 217.81 466.3 218 470.14 220.04C475.36 222.81 479.68 227.01 482.58 232.16C482.96 232.83 483.9 234.49 485.4 237.16" id="e6jirOcxBU"></path><path d="M5.14 168.64C33.6 180.54 51.39 187.98 58.51 190.95C68.22 195.01 78.59 197.29 89.11 197.69C93.77 197.86 105.43 198.29 124.08 198.99L127.38 213.53L168.35 220.05L173.51 234.39C176.61 234.86 178.54 235.15 179.32 235.27C187.63 236.52 196.08 236.61 204.41 235.54C205.6 235.39 208.55 235 213.28 234.39" id="c8vtm0IqV"></path><path d="M175.59 342.34C177.18 320.51 178.17 306.86 178.57 301.4C179.25 292.16 178.99 282.87 177.82 273.68C177.15 268.44 175.49 255.34 172.81 234.39" id="k9S0pklZL"></path><path d="M68.9 434.1C87.21 406.75 98.65 389.66 103.23 382.82C111.09 371.08 116.28 357.76 118.46 343.81C120.44 331.06 122.96 314.83 124.92 302.29C127.22 287.52 128.14 272.56 127.69 257.62C127.51 251.94 127.08 237.76 126.39 215.08" id="g13nBv8q9D"></path><path d="M103.62 379.59C109.01 381.91 112.38 383.37 113.73 383.95C124.1 388.43 135.13 391.21 146.39 392.19C147.99 392.33 152.01 392.68 158.44 393.24" id="c38NLGQh20"></path><path d="M451.02 205.3L444.37 205.3L437.73 206.14L431.91 206.14L428.18 209.95L431.08 214.6L434.41 219.25L438.14 223.47L442.3 227.28L447.28 229.81L452.26 232.35L457.25 235.73L462.23 237.42L468.05 238.69L473.44 239.54L478.84 239.96L483 236.15" id="b78Qa85x0"></path></defs><g><g><g><g><use xlink:href="#eztLmlMoY" opacity="1" fill-opacity="0" stroke="#000000" stroke-width="3" stroke-opacity="1"></use></g></g><g><g><use xlink:href="#a1VdzZUsib" opacity="1" fill-opacity="0" stroke="#000000" stroke-width="1" stroke-opacity="1"></use></g></g><g><g><use xlink:href="#b1LOLUHDO" opacity="1" fill-opacity="0" stroke="#000000" stroke-width="1" stroke-opacity="1"></use></g></g><g><g><use xlink:href="#i182fayCFb" opacity="1" fill-opacity="0" stroke="#000000" stroke-width="1" stroke-opacity="1"></use></g></g><g><g><use xlink:href="#a3byTaz3g" opacity="1" fill-opacity="0" stroke="#000000" stroke-width="1" stroke-opacity="1"></use></g></g><g><g><use xlink:href="#a96QfvFo" opacity="1" fill-opacity="0" stroke="#000000" stroke-width="3" stroke-opacity="1"></use></g></g><g><g><use xlink:href="#d1iHQhhlFg" opacity="1" fill-opacity="0" stroke="#000000" stroke-width="1" stroke-opacity="1"></use></g></g><g><g><use xlink:href="#a69pcKzQj7" opacity="1" fill-opacity="0" stroke="#000000" stroke-width="1" stroke-opacity="1"></use></g></g><g><g><use xlink:href="#a2t7LIPjwU" opacity="1" fill-opacity="0" stroke="#000000" stroke-width="1" stroke-opacity="1"></use></g></g><g><g><use xlink:href="#c2g6KzK4EO" opacity="1" fill-opacity="0" stroke="#000000" stroke-width="1" stroke-opacity="1"></use></g></g><g><g><use xlink:href="#b1ddJSS7iY" opacity="1" fill-opacity="0" stroke="#000000" stroke-width="1" stroke-opacity="1"></use></g></g><g><g><use xlink:href="#a7KhkA1HLf" opacity="1" fill-opacity="0" stroke="#000000" stroke-width="1" stroke-opacity="1"></use></g></g><g><g><use xlink:href="#airxJHDI8" opacity="1" fill-opacity="0" stroke="#000000" stroke-width="1" stroke-opacity="1"></use></g></g><g><g><use xlink:href="#c2Wt4Fwkqv" opacity="1" fill-opacity="0" stroke="#000000" stroke-width="3" stroke-opacity="1"></use></g></g><g><g><use xlink:href="#a142d7lT1N" opacity="1" fill-opacity="0" stroke="#000000" stroke-width="1" stroke-opacity="1"></use></g></g><g><g><use xlink:href="#bp2P5IsqF" opacity="1" fill-opacity="0" stroke="#000000" stroke-width="1" stroke-opacity="1"></use></g></g><g><g><use xlink:href="#e5P0FTmil" opacity="1" fill-opacity="0" stroke="#000000" stroke-width="1" stroke-opacity="1"></use></g></g><g><g><use xlink:href="#e3laHIIq2j" opacity="1" fill-opacity="0" stroke="#000000" stroke-width="3" stroke-opacity="1"></use></g></g><g><g><use xlink:href="#e1yqhorLVl" opacity="1" fill-opacity="0" stroke="#000000" stroke-width="1" stroke-opacity="1"></use></g></g><g><g><use xlink:href="#a1Lq7XpOHa" opacity="1" fill-opacity="0" stroke="#000000" stroke-width="1" stroke-opacity="1"></use></g></g><g><g><use xlink:href="#a16HNYaNik" opacity="1" fill-opacity="0" stroke="#000000" stroke-width="1" stroke-opacity="1"></use></g></g><g><g><use xlink:href="#i3Mlowii7" opacity="1" fill-opacity="0" stroke="#000000" stroke-width="3" stroke-opacity="1"></use></g></g><g><g><use xlink:href="#aLiuuB65P" opacity="1" fill-opacity="0" stroke="#000000" stroke-width="1" stroke-opacity="1"></use></g></g><g><g><use xlink:href="#d4ToMdFwCi" opacity="1" fill-opacity="0" stroke="#000000" stroke-width="3" stroke-opacity="1"></use></g></g><g><g><use xlink:href="#f8qZw1vbZJ" opacity="1" fill-opacity="0" stroke="#000000" stroke-width="1" stroke-opacity="1"></use></g></g><g><g><use xlink:href="#e4PPYSqOg" opacity="1" fill-opacity="0" stroke="#000000" stroke-width="3" stroke-opacity="1"></use></g></g><g><g><use xlink:href="#o17Dzfxfem" opacity="1" fill-opacity="0" stroke="#000000" stroke-width="1" stroke-opacity="1"></use></g></g><g><g><use xlink:href="#c1kfutE4l3" opacity="1" fill-opacity="0" stroke="#000000" stroke-width="1" stroke-opacity="1"></use></g></g><g><g><use xlink:href="#bqcQlJyM7" opacity="1" fill-opacity="0" stroke="#000000" stroke-width="1" stroke-opacity="1"></use></g></g><g><g><use xlink:href="#g1wYkPT1Pz" opacity="1" fill-opacity="0" stroke="#000000" stroke-width="1" stroke-opacity="1"></use></g></g><g><g><use xlink:href="#a14JMaBu9" opacity="1" fill-opacity="0" stroke="#000000" stroke-width="3" stroke-opacity="1"></use></g></g><g><g><use xlink:href="#a2ss4hPJIb" opacity="1" fill-opacity="0" stroke="#000000" stroke-width="1" stroke-opacity="1"></use></g></g><g><g><use xlink:href="#a3o9cNql31" opacity="1" fill-opacity="0" stroke="#000000" stroke-width="1" stroke-opacity="1"></use></g></g><g><g><use xlink:href="#c3IPsUPgIZ" opacity="1" fill-opacity="0" stroke="#000000" stroke-width="1" stroke-opacity="1"></use></g></g><g><g><use xlink:href="#c39B1OxtWh" opacity="1" fill-opacity="0" stroke="#000000" stroke-width="1" stroke-opacity="1"></use></g></g><g><g><use xlink:href="#cvWZxTsPK" opacity="1" fill-opacity="0" stroke="#000000" stroke-width="3" stroke-opacity="1"></use></g></g><g><g><use xlink:href="#b1lxCO78HH" opacity="1" fill-opacity="0" stroke="#000000" stroke-width="1" stroke-opacity="1"></use></g></g><g><g><use xlink:href="#c4uUS2Z5HQ" opacity="1" fill-opacity="0" stroke="#000000" stroke-width="1" stroke-opacity="1"></use></g></g><g><g><use xlink:href="#b6zxEH8UWh" opacity="1" fill-opacity="0" stroke="#000000" stroke-width="1" stroke-opacity="1"></use></g></g><g><g><use xlink:href="#bXN7en0W6" opacity="1" fill-opacity="0" stroke="#000000" stroke-width="1" stroke-opacity="1"></use></g></g><g><g><use xlink:href="#b5z9TzHb5L" opacity="1" fill-opacity="0" stroke="#000000" stroke-width="3" stroke-opacity="1"></use></g></g><g><g><use xlink:href="#a1bxw4CHPJ" opacity="1" fill-opacity="0" stroke="#000000" stroke-width="1" stroke-opacity="1"></use></g></g><g><g><use xlink:href="#aJxxkDHeh" opacity="1" fill-opacity="0" stroke="#000000" stroke-width="3" stroke-opacity="1"></use></g></g><g><g><use xlink:href="#g8bgMnm3TY" opacity="1" fill-opacity="0" stroke="#000000" stroke-width="3" stroke-opacity="1"></use></g></g><g><g><use xlink:href="#ahJHSRzSa" opacity="1" fill-opacity="0" stroke="#000000" stroke-width="3" stroke-opacity="1"></use></g></g><g><g><use xlink:href="#g35QcHjEPr" opacity="1" fill-opacity="0" stroke="#000000" stroke-width="3" stroke-opacity="1"></use></g></g><g><g><use xlink:href="#g5N7lqINdb" opacity="1" fill-opacity="0" stroke="#000000" stroke-width="3" stroke-opacity="1"></use></g></g><g><g><use xlink:href="#ds6sDxKzg" opacity="1" fill-opacity="0" stroke="#000000" stroke-width="3" stroke-opacity="1"></use></g></g><g><g><use xlink:href="#e6jirOcxBU" opacity="1" fill-opacity="0" stroke="#000000" stroke-width="3" stroke-opacity="1"></use></g></g><g><g><use xlink:href="#c8vtm0IqV" opacity="1" fill-opacity="0" stroke="#000000" stroke-width="3" stroke-opacity="1"></use></g></g><g><g><use xlink:href="#k9S0pklZL" opacity="1" fill-opacity="0" stroke="#000000" stroke-width="3" stroke-opacity="1"></use></g></g><g><g><use xlink:href="#g13nBv8q9D" opacity="1" fill-opacity="0" stroke="#000000" stroke-width="3" stroke-opacity="1"></use></g></g><g><g><use xlink:href="#c38NLGQh20" opacity="1" fill-opacity="0" stroke="#000000" stroke-width="3" stroke-opacity="1"></use></g></g><g><g><use xlink:href="#b78Qa85x0" opacity="1" fill-opacity="0" stroke="#000000" stroke-width="1" stroke-opacity="1"></use></g></g></g></g></svg>