<?xml version="1.0" encoding="UTF-8" standalone="no"?>
<!DOCTYPE svg PUBLIC "-//W3C//DTD SVG 1.1//EN" "http://www.w3.org/Graphics/SVG/1.1/DTD/svg11.dtd">
<svg version="1.1" xmlns="http://www.w3.org/2000/svg" xmlns:xlink="http://www.w3.org/1999/xlink" preserveAspectRatio="xMidYMid meet" viewBox="0 0 640 640" width="640" height="640"><defs><path d="M502.01 15.99C569.39 15.99 624.01 70.61 624.01 137.99C624.01 235.19 624.01 404.81 624.01 502.01C624.01 569.39 569.39 624.01 502.01 624.01C489.54 624.01 458.36 624.01 408.46 624.01L408.46 385.55L489.23 385.55L512.31 300.94L408.46 300.94C408.46 268.71 408.46 248.56 408.46 240.5C408.46 219.96 425.11 203.31 445.66 203.31C454.29 203.31 475.86 203.31 510.38 203.31L512.31 118.25L408.46 118.25C393.68 118.25 384.44 118.25 380.75 118.25C332.42 118.25 293.24 157.42 293.24 205.76C293.24 218.45 293.24 250.17 293.24 300.94L214.23 300.94L214.23 385.55L293.24 385.55L293.24 624.01C210.44 624.01 158.69 624.01 137.99 624.01C70.61 624.01 15.99 569.39 15.99 502.01C15.99 404.81 15.99 235.19 15.99 137.99C15.99 70.61 70.61 15.99 137.99 15.99C235.19 15.99 404.81 15.99 502.01 15.99Z" id="fBy0Z6Me0"></path></defs><g><g><g><use xlink:href="#fBy0Z6Me0" opacity="1" fill="#ffffff" fill-opacity="0"></use><g><use xlink:href="#fBy0Z6Me0" opacity="1" fill-opacity="0" stroke="#000000" stroke-width="30" stroke-opacity="1"></use></g></g></g></g></svg>