<?xml version="1.0" encoding="UTF-8" standalone="no"?>
<!DOCTYPE svg PUBLIC "-//W3C//DTD SVG 1.1//EN" "http://www.w3.org/Graphics/SVG/1.1/DTD/svg11.dtd">
<svg version="1.1" xmlns="http://www.w3.org/2000/svg" xmlns:xlink="http://www.w3.org/1999/xlink" preserveAspectRatio="xMidYMid meet" viewBox="0 0 640 640" width="640" height="640"><defs><path d="M593.11 563.42L55.6 563.42" id="d2kg8g1P59"></path><path d="M145.78 523.01C149.56 518.05 155.44 515.13 161.69 515.13C229.05 515.13 422.94 515.13 490.73 515.13C495.63 515.13 500.25 517.42 503.23 521.32C504.82 523.41 503.11 521.18 504.26 522.69C508.81 528.66 511.94 535.58 513.41 542.94C513.96 545.67 515.32 552.5 517.51 563.42L131.2 563.42C134.69 549.46 136.87 540.73 137.74 537.24C138.65 533.62 140.28 530.23 142.54 527.26C144.39 524.84 144.45 524.76 145.78 523.01Z" id="cg4COaPeO"></path><path d="M309.71 515.13L309.71 192.05L339 192.05L339 515.13L324.15 515.13L309.71 515.13Z" id="h9XIDz7jO"></path><path d="M364.35 152.13C364.35 174.16 346.43 192.05 324.35 192.05C302.28 192.05 284.35 174.16 284.35 152.13C284.35 130.09 302.28 112.2 324.35 112.2C346.43 112.2 364.35 130.09 364.35 152.13Z" id="a2Sgjl5uT4"></path><path d="M357.44 152.13C357.44 170.35 342.62 185.15 324.35 185.15C306.09 185.15 291.27 170.35 291.27 152.13C291.27 133.9 306.09 119.1 324.35 119.1C342.62 119.1 357.44 133.9 357.44 152.13Z" id="a27lIT382l"></path><path d="M284.35 162.81L118.27 162.81L118.27 141.44L284.35 141.44L284.35 162.81Z" id="b1YhVn56HC"></path><path d="M530.44 162.81L364.35 162.81L364.35 141.44L530.44 141.44L530.44 162.81Z" id="bLHW6qA6"></path><path d="M83.44 291.11L83.44 230.15L118.27 162.81" id="a7IrmlQIGT"></path><path d="M495.6 291.11L495.6 230.15L530.44 162.81" id="cKstrVUwu"></path><path d="M565.27 291.11L565.27 230.15L530.44 162.81" id="a527JTSz5"></path><path d="M153.1 291.11L153.1 230.15L118.27 162.81" id="b1Dn2GEkOy"></path><path d="M182.35 291.32C183.14 291.89 178.14 354.67 118.2 355.47C58.26 356.26 54.05 291.1 54.05 291.32C54.05 291.54 181.56 290.75 182.35 291.32Z" id="c71Vk3mQv2"></path><path d="M594.55 291.32C595.34 291.89 590.34 354.67 530.4 355.47C470.46 356.26 466.25 291.1 466.25 291.32C466.25 291.54 593.76 290.75 594.55 291.32Z" id="f3ohvMC13"></path></defs><g><g><g><g><use xlink:href="#d2kg8g1P59" opacity="1" fill-opacity="0" stroke="#000000" stroke-width="3" stroke-opacity="1"></use></g></g><g><g><use xlink:href="#cg4COaPeO" opacity="1" fill-opacity="0" stroke="#000000" stroke-width="3" stroke-opacity="1"></use></g></g><g><g><use xlink:href="#h9XIDz7jO" opacity="1" fill-opacity="0" stroke="#000000" stroke-width="3" stroke-opacity="1"></use></g></g><g><use xlink:href="#a2Sgjl5uT4" opacity="1" fill="#ffffff" fill-opacity="0"></use><g><use xlink:href="#a2Sgjl5uT4" opacity="1" fill-opacity="0" stroke="#000000" stroke-width="3" stroke-opacity="1"></use></g></g><g><use xlink:href="#a27lIT382l" opacity="1" fill="#ffffff" fill-opacity="0"></use><g><use xlink:href="#a27lIT382l" opacity="1" fill-opacity="0" stroke="#000000" stroke-width="3" stroke-opacity="1"></use></g></g><g><g><use xlink:href="#b1YhVn56HC" opacity="1" fill-opacity="0" stroke="#000000" stroke-width="3" stroke-opacity="1"></use></g></g><g><g><use xlink:href="#bLHW6qA6" opacity="1" fill-opacity="0" stroke="#000000" stroke-width="3" stroke-opacity="1"></use></g></g><g><g><use xlink:href="#a7IrmlQIGT" opacity="1" fill-opacity="0" stroke="#000000" stroke-width="3" stroke-opacity="1"></use></g></g><g><g><use xlink:href="#cKstrVUwu" opacity="1" fill-opacity="0" stroke="#000000" stroke-width="3" stroke-opacity="1"></use></g></g><g><g><use xlink:href="#a527JTSz5" opacity="1" fill-opacity="0" stroke="#000000" stroke-width="3" stroke-opacity="1"></use></g></g><g><g><use xlink:href="#b1Dn2GEkOy" opacity="1" fill-opacity="0" stroke="#000000" stroke-width="3" stroke-opacity="1"></use></g></g><g><use xlink:href="#c71Vk3mQv2" opacity="1" fill="#834c4c" fill-opacity="0"></use><g><use xlink:href="#c71Vk3mQv2" opacity="1" fill-opacity="0" stroke="#000000" stroke-width="3" stroke-opacity="1"></use></g></g><g><use xlink:href="#f3ohvMC13" opacity="1" fill="#834c4c" fill-opacity="0"></use><g><use xlink:href="#f3ohvMC13" opacity="1" fill-opacity="0" stroke="#000000" stroke-width="3" stroke-opacity="1"></use></g></g></g></g></svg>