<?xml version="1.0" encoding="UTF-8" standalone="no"?>
<!DOCTYPE svg PUBLIC "-//W3C//DTD SVG 1.1//EN" "http://www.w3.org/Graphics/SVG/1.1/DTD/svg11.dtd">
<svg version="1.1" xmlns="http://www.w3.org/2000/svg" xmlns:xlink="http://www.w3.org/1999/xlink" preserveAspectRatio="xMidYMid meet" viewBox="0 0 640 640" width="640" height="640"><defs><path d="M480.73 544.24C281.91 522.78 116.42 381.94 63.44 189.11C60.6 178.79 71.96 220.11 52.14 147.97C50.56 142.25 54.01 136.35 59.78 134.92C78.07 130.38 111.15 122.16 126.62 118.32C141.35 114.66 156.77 120.76 165.02 133.5C178.44 154.26 206.06 196.97 219.77 218.16C226.69 228.87 224 243.12 213.64 250.56C206.1 255.97 199.57 260.66 191.43 266.51C183.66 272.1 183.38 283.57 190.88 289.52C227.79 318.81 322.84 394.25 359.57 423.4C368.98 430.86 382.16 431.28 392.03 424.43C400.1 418.83 404.08 416.06 411.25 411.09C424.36 401.98 441.31 400.51 455.79 407.21C470.27 413.91 482.29 419.48 494.76 425.25C515.32 434.76 528.91 454.89 530.06 477.51C530.8 492 531.3 501.86 532.07 517.14C532.95 534.37 518.21 548.29 501.06 546.44C431.09 538.88 491.33 545.39 480.73 544.24Z" id="o8iWnQ7jk"></path></defs><g><g><g><g><use xlink:href="#o8iWnQ7jk" opacity="1" fill-opacity="0" stroke="#060101" stroke-width="30" stroke-opacity="1"></use></g></g></g></g></svg>