<?xml version="1.0" encoding="UTF-8" standalone="no"?>
<!DOCTYPE svg PUBLIC "-//W3C//DTD SVG 1.1//EN" "http://www.w3.org/Graphics/SVG/1.1/DTD/svg11.dtd">
<svg version="1.1" xmlns="http://www.w3.org/2000/svg" xmlns:xlink="http://www.w3.org/1999/xlink" preserveAspectRatio="xMidYMid meet" viewBox="0 0 640 640" width="640" height="640"><defs><path d="M143.78 467.53L141.59 442.72L136.99 370.45L125.34 300.36L124.31 287.24L182.18 287.24L180.72 312.42L174.43 380.67L173.19 452.94C173.19 463.09 173.19 469.44 173.19 471.98C173.19 476.63 175.77 480.89 179.89 483.05C180.93 483.59 183.53 484.95 187.68 487.13C191.37 488.58 193.68 489.48 194.61 489.84C198.04 491.19 200.99 493.54 203.06 496.59C203.52 497.27 202.81 496.23 203.55 497.31C204.56 498.79 204.19 500.8 202.73 501.83C202.1 502.27 203.25 501.46 202.73 501.83C200.69 503.26 198.26 504.03 195.76 504.03C192.92 504.03 185.81 504.03 174.43 504.03L154 504.03C152.62 503.76 151.76 503.59 151.42 503.53C147.53 502.77 144.58 499.58 144.12 495.64C144.04 494.97 144.27 496.96 144.12 495.64C143.86 493.4 143.86 491.13 144.11 488.89C144.22 487.99 144.47 485.74 144.89 482.13L143.78 467.53Z" id="f1wqZea4RD"></path><path d="M181.45 287.24C181.45 287.24 181.45 287.24 181.45 287.24C184.13 285.71 185.36 282.51 184.42 279.57C184.22 278.98 184.84 280.89 184.54 279.96C183.82 277.73 183.49 275.4 183.57 273.06C183.74 267.58 184.07 257.58 184.22 252.82C184.38 248.12 185.57 243.5 187.73 239.32C189.43 236.03 193.67 227.82 200.45 214.67C205.67 203.87 208.93 197.11 210.24 194.41C213.03 188.62 214.92 182.44 215.84 176.08C216.67 170.4 218.37 158.63 219.35 151.87C219.75 149.08 220.43 146.33 221.37 143.67C221.58 143.07 222.11 141.57 222.95 139.17L200.45 116.67L191.95 121.67C179.66 128.04 171.98 132.02 168.91 133.61C165.62 135.31 162.6 137.48 159.93 140.04C155.63 144.17 146.93 152.53 142.67 156.62C139.9 159.29 137.78 162.56 136.48 166.18C133.98 173.18 129.8 184.84 127.64 190.88C125.19 197.71 123.62 204.83 122.95 212.07C121.79 224.77 118.73 258.07 117.42 272.29C117.22 274.47 116.56 276.57 115.49 278.47C115.05 279.24 115.68 278.13 115.32 278.76C114.15 280.82 114.65 283.43 116.51 284.91C116.78 285.12 116.38 284.8 117.15 285.42C117.63 285.8 118.16 286.1 118.74 286.31C119.08 286.43 119.94 286.74 121.31 287.24L181.45 287.24Z" id="hLOXqLnbx"></path><path d="M229.28 133.78C231.37 132.2 232.68 131.21 233.2 130.82C234.31 129.97 235.81 129.84 237.06 130.48C237.65 130.78 237.24 130.57 237.79 130.85C239.25 131.6 240.53 132.65 241.54 133.94C242.02 134.53 243.2 136.03 245.09 138.42C245.5 138.46 245.76 138.49 245.86 138.5C247.68 138.68 249.51 138.23 251.04 137.22C251.34 137.02 250.7 137.44 251.2 137.11C252.04 136.56 252.51 135.59 252.42 134.59C252.38 134.07 252.47 135.11 252.45 134.84C252.32 133.41 253.6 132.26 255 132.54C255.25 132.59 254.1 132.36 254.57 132.46C255.56 132.65 256.55 132.15 256.97 131.23C257.34 130.41 257.43 130.22 257.72 129.58C258.33 128.24 259.92 127.65 261.26 128.28C262.31 128.77 263.05 129.11 264.1 129.61C265.23 130.13 266.52 129.31 266.52 128.07C266.53 126.59 266.53 125.13 266.54 123.73C266.55 121.89 267.72 120.27 269.47 119.69C269.84 119.57 269.52 119.67 270.26 119.43C270.96 119.2 271.58 118.79 272.06 118.23C272.86 117.31 273.97 116.04 274.63 115.28C275.58 114.19 276.29 112.91 276.73 111.54C276.96 110.81 277.54 108.98 278.47 106.05C280.83 108.55 282.3 110.11 282.89 110.73C283.97 111.87 285.79 111.84 286.84 110.67C287.12 110.35 286.09 111.51 286.38 111.18C287.56 109.85 288.06 108.05 287.72 106.31C287.15 103.28 286.22 98.39 285.71 95.71C285.13 92.7 284.07 89.8 282.55 87.13C280.83 84.1 279.52 81.78 278.19 79.43C275.43 74.56 271.29 70.62 266.29 68.09C264.04 66.95 264.17 67.02 261.72 65.78C257.42 63.6 252.43 63.19 247.82 64.62C245.43 65.36 242.48 66.28 239.35 67.25C237.08 67.95 235.02 69.23 233.38 70.95C231.46 72.96 229.5 75.02 227.91 76.69C225.24 79.49 223.56 83.08 223.12 86.92C222.94 88.48 222.87 89.13 222.64 91.16C222.37 93.5 221.7 95.78 220.65 97.9C219.77 99.69 219.29 100.65 218.56 102.14C217.04 105.22 214.7 107.82 211.79 109.65C210.29 110.59 206.54 112.96 200.53 116.75L222.23 138.42L229.28 133.78Z" id="mkuOWDB21"></path><path d="M150.93 222.51C150.02 226.62 149.49 230.81 149.35 235.01C149.23 238.58 148.93 247.49 148.45 261.75L166.95 264.67L170.45 247.1L194.45 170.37C195.84 167.43 196.71 165.59 197.06 164.85C199.17 160.38 199.56 155.29 198.18 150.54C197.73 149.01 198.14 150.41 197.59 148.53C196.63 145.24 193.53 143.05 190.11 143.26C187.83 143.39 187.98 143.38 185.99 143.5C181.4 143.77 177.21 146.17 174.66 150C173.82 151.26 173.5 151.74 172.19 153.69C171.04 155.43 170.05 157.27 169.25 159.2C167.4 163.65 163.25 173.63 161.44 177.96C160.47 180.29 159.71 182.7 159.17 185.16C157.25 193.86 152.74 214.3 150.93 222.51Z" id="a18Vukvij1"></path><path d="" id="acVK2DPKG"></path><path d="M143.26 280.37C143 288.05 142.83 292.85 142.76 294.77C142.7 296.69 143.21 298.59 144.24 300.21C144.53 300.67 144.34 300.37 144.76 301.04C145.22 301.77 146.25 301.86 146.84 301.23C147.27 300.77 147.07 300.98 147.42 300.61C148.43 299.52 149.01 298.1 149.07 296.61C149.14 294.64 149.33 289.7 149.63 281.8C149.54 289.83 149.48 294.84 149.45 296.85C149.43 298.57 150.12 300.22 151.36 301.42C151.67 301.73 151.55 301.61 152.08 302.13C152.54 302.57 153.29 302.53 153.69 302.02C154.01 301.62 153.87 301.79 154.11 301.5C154.87 300.54 155.3 299.36 155.33 298.14C155.4 295.96 155.57 290.51 155.85 281.8C156.2 290.31 156.43 295.63 156.52 297.76C156.57 299.17 157.35 300.45 158.57 301.16C158.87 301.33 158.38 301.05 158.83 301.31C159.56 301.74 160.48 301.66 161.13 301.12C161.39 300.9 160.6 301.55 160.74 301.44C161.82 300.54 162.41 299.2 162.35 297.81C162.22 294.68 161.9 286.84 161.38 274.31C162 278.12 162.4 280.51 162.55 281.46C162.85 283.29 163.81 284.94 165.25 286.1C165.92 286.63 165.75 286.5 166.43 287.05C167.46 287.88 169 287.4 169.38 286.13C169.49 285.76 169.16 286.86 169.3 286.37C169.71 285.01 169.74 283.57 169.4 282.19C168.86 280.01 167.77 275.59 167.24 273.42C166.89 272.02 166.72 270.58 166.72 269.15C166.72 268.54 166.72 267.01 166.72 264.57L149.63 262.32C147.76 264.98 146.6 266.65 146.13 267.31C145.12 268.74 144.48 270.4 144.27 272.14C144.14 273.24 143.8 275.98 143.26 280.37Z" id="d1xG8ub45T"></path><path d="M520.56 467.53L522.75 442.72L527.35 370.45L539 300.36L540.03 287.24L482.16 287.24L483.62 312.42L489.91 380.67L491.15 452.94C491.15 463.09 491.15 469.44 491.15 471.98C491.15 476.63 488.57 480.89 484.45 483.05C483.41 483.59 480.81 484.95 476.66 487.13C472.97 488.58 470.66 489.48 469.74 489.84C466.3 491.19 463.36 493.54 461.28 496.59C460.82 497.27 461.53 496.23 460.79 497.31C459.79 498.79 460.15 500.8 461.62 501.83C462.24 502.27 461.09 501.46 461.62 501.83C463.66 503.26 466.09 504.03 468.58 504.03C471.42 504.03 478.53 504.03 489.91 504.03L510.35 504.03C511.72 503.76 512.58 503.59 512.92 503.53C516.81 502.77 519.77 499.58 520.22 495.64C520.3 494.97 520.07 496.96 520.22 495.64C520.48 493.4 520.48 491.13 520.23 488.89C520.13 487.99 519.87 485.74 519.45 482.13L520.56 467.53Z" id="b6LI1I0tG"></path><path d="M482.89 287.24C482.89 287.24 482.89 287.24 482.89 287.24C480.21 285.71 478.98 282.51 479.93 279.57C480.12 278.98 479.5 280.89 479.8 279.96C480.52 277.73 480.85 275.4 480.77 273.06C480.6 267.58 480.27 257.58 480.12 252.82C479.97 248.12 478.77 243.5 476.61 239.32C474.91 236.03 470.67 227.82 463.89 214.67C458.67 203.87 455.41 197.11 454.1 194.41C451.31 188.62 449.42 182.44 448.5 176.08C447.68 170.4 445.97 158.63 445 151.87C444.59 149.08 443.91 146.33 442.98 143.67C442.76 143.07 442.23 141.57 441.39 139.17L463.89 116.67L472.39 121.67C484.68 128.04 492.36 132.02 495.43 133.61C498.72 135.31 501.74 137.48 504.41 140.04C508.71 144.17 517.41 152.53 521.67 156.62C524.44 159.29 526.56 162.56 527.86 166.18C530.37 173.18 534.54 184.84 536.7 190.88C539.15 197.71 540.72 204.83 541.39 212.07C542.55 224.77 545.61 258.07 546.92 272.29C547.12 274.47 547.78 276.57 548.86 278.47C549.3 279.24 548.66 278.13 549.02 278.76C550.19 280.82 549.69 283.43 547.83 284.91C547.56 285.12 547.97 284.8 547.19 285.42C546.72 285.8 546.18 286.1 545.6 286.31C545.26 286.43 544.4 286.74 543.03 287.24L482.89 287.24Z" id="duIhBtWb3"></path><path d="M435.06 133.78C432.97 132.2 431.67 131.21 431.14 130.82C430.03 129.97 428.53 129.84 427.28 130.48C426.69 130.78 427.11 130.57 426.55 130.85C425.1 131.6 423.82 132.65 422.8 133.94C422.33 134.53 421.15 136.03 419.26 138.42C418.84 138.46 418.58 138.49 418.48 138.5C416.66 138.68 414.83 138.23 413.3 137.22C413 137.02 413.64 137.44 413.14 137.11C412.3 136.56 411.83 135.59 411.92 134.59C411.96 134.07 411.87 135.11 411.9 134.84C412.02 133.41 410.74 132.26 409.34 132.54C409.09 132.59 410.24 132.36 409.77 132.46C408.78 132.65 407.79 132.15 407.37 131.23C407 130.41 406.91 130.22 406.62 129.58C406.01 128.24 404.42 127.65 403.08 128.28C402.03 128.77 401.3 129.11 400.24 129.61C399.12 130.13 397.82 129.31 397.82 128.07C397.81 126.59 397.81 125.13 397.8 123.73C397.8 121.89 396.62 120.27 394.88 119.69C394.5 119.57 394.82 119.67 394.08 119.43C393.38 119.2 392.76 118.79 392.28 118.23C391.48 117.31 390.38 116.04 389.71 115.28C388.77 114.19 388.05 112.91 387.61 111.54C387.38 110.81 386.8 108.98 385.87 106.05C383.51 108.55 382.04 110.11 381.45 110.73C380.37 111.87 378.55 111.84 377.51 110.67C377.22 110.35 378.26 111.51 377.96 111.18C376.78 109.85 376.29 108.05 376.62 106.31C377.19 103.28 378.13 98.39 378.63 95.71C379.21 92.7 380.27 89.8 381.79 87.13C383.51 84.1 384.82 81.78 386.15 79.43C388.91 74.56 393.05 70.62 398.05 68.09C400.31 66.95 400.17 67.02 402.62 65.78C406.93 63.6 411.91 63.19 416.52 64.62C418.91 65.36 421.86 66.28 424.99 67.25C427.27 67.95 429.32 69.23 430.96 70.95C432.88 72.96 434.84 75.02 436.44 76.69C439.1 79.49 440.78 83.08 441.22 86.92C441.4 88.48 441.47 89.13 441.71 91.16C441.97 93.5 442.64 95.78 443.69 97.9C444.57 99.69 445.05 100.65 445.78 102.14C447.3 105.22 449.64 107.82 452.55 109.65C454.05 110.59 457.81 112.96 463.81 116.75L442.11 138.42L435.06 133.78Z" id="koM3YZCh3"></path><path d="M513.42 222.51C514.32 226.62 514.85 230.81 514.99 235.01C515.11 238.58 515.41 247.49 515.89 261.75L497.39 264.67L493.89 247.1L469.89 170.37C468.5 167.43 467.63 165.59 467.28 164.85C465.18 160.38 464.78 155.29 466.16 150.54C466.61 149.01 466.2 150.41 466.75 148.53C467.71 145.24 470.81 143.05 474.23 143.26C476.51 143.39 476.36 143.38 478.35 143.5C482.94 143.77 487.14 146.17 489.69 150C490.53 151.26 490.85 151.74 492.15 153.69C493.31 155.43 494.29 157.27 495.09 159.2C496.95 163.65 501.1 173.63 502.9 177.96C503.87 180.29 504.63 182.7 505.17 185.16C507.09 193.86 511.6 214.3 513.42 222.51Z" id="b29aAw4UpO"></path><path d="" id="b4nL1u6Ud2"></path><path d="M521.8 280.31C522.07 287.96 522.23 292.74 522.3 294.65C522.36 296.57 521.85 298.46 520.83 300.08C520.54 300.54 520.73 300.24 520.31 300.9C519.85 301.63 518.82 301.73 518.24 301.09C517.81 300.63 518.01 300.85 517.66 300.47C516.65 299.39 516.07 297.98 516.01 296.5C515.94 294.53 515.75 289.61 515.46 281.73C515.55 289.73 515.61 294.73 515.63 296.73C515.65 298.45 514.97 300.09 513.74 301.29C513.42 301.6 513.54 301.48 513.01 301.99C512.55 302.44 511.81 302.39 511.41 301.88C511.09 301.49 511.23 301.66 511 301.36C510.24 300.41 509.81 299.24 509.77 298.02C509.7 295.85 509.53 290.42 509.26 281.73C508.91 290.21 508.68 295.51 508.59 297.63C508.54 299.04 507.76 300.32 506.55 301.03C506.25 301.2 506.73 300.92 506.29 301.18C505.56 301.6 504.65 301.52 504 300.99C503.74 300.77 504.52 301.42 504.38 301.3C503.31 300.41 502.72 299.08 502.78 297.69C502.91 294.57 503.23 286.76 503.75 274.27C503.13 278.07 502.73 280.44 502.58 281.39C502.28 283.21 501.32 284.86 499.89 286.02C499.22 286.55 499.4 286.41 498.72 286.96C497.69 287.79 496.15 287.31 495.78 286.05C495.67 285.68 496 286.77 495.85 286.29C495.45 284.93 495.42 283.49 495.75 282.12C496.29 279.95 497.38 275.55 497.91 273.38C498.25 271.98 498.43 270.56 498.43 269.12C498.43 268.51 498.43 266.99 498.43 264.56L515.46 262.32C517.32 264.97 518.48 266.63 518.94 267.29C519.95 268.72 520.58 270.37 520.8 272.11C520.93 273.2 521.27 275.93 521.8 280.31Z" id="b6k2Ab1UE"></path></defs><g><g><g><use xlink:href="#f1wqZea4RD" opacity="1" fill="#ffffff" fill-opacity="1"></use><g><use xlink:href="#f1wqZea4RD" opacity="1" fill-opacity="0" stroke="#000000" stroke-width="2" stroke-opacity="1"></use></g></g><g><use xlink:href="#hLOXqLnbx" opacity="1" fill="#ffffff" fill-opacity="1"></use><g><use xlink:href="#hLOXqLnbx" opacity="1" fill-opacity="0" stroke="#000000" stroke-width="2" stroke-opacity="1"></use></g></g><g><use xlink:href="#mkuOWDB21" opacity="1" fill="#ffffff" fill-opacity="1"></use><g><use xlink:href="#mkuOWDB21" opacity="1" fill-opacity="0" stroke="#000000" stroke-width="2" stroke-opacity="1"></use></g></g><g><use xlink:href="#a18Vukvij1" opacity="1" fill="#ffffff" fill-opacity="1"></use><g><use xlink:href="#a18Vukvij1" opacity="1" fill-opacity="0" stroke="#000000" stroke-width="2" stroke-opacity="1"></use></g></g><g><use xlink:href="#acVK2DPKG" opacity="1" fill="#ffffff" fill-opacity="1"></use><g><use xlink:href="#acVK2DPKG" opacity="1" fill-opacity="0" stroke="#000000" stroke-width="2" stroke-opacity="1"></use></g></g><g><use xlink:href="#d1xG8ub45T" opacity="1" fill="#ffffff" fill-opacity="1"></use><g><use xlink:href="#d1xG8ub45T" opacity="1" fill-opacity="0" stroke="#000000" stroke-width="2" stroke-opacity="1"></use></g></g><g><use xlink:href="#b6LI1I0tG" opacity="1" fill="#ffffff" fill-opacity="1"></use><g><use xlink:href="#b6LI1I0tG" opacity="1" fill-opacity="0" stroke="#000000" stroke-width="2" stroke-opacity="1"></use></g></g><g><use xlink:href="#duIhBtWb3" opacity="1" fill="#ffffff" fill-opacity="1"></use><g><use xlink:href="#duIhBtWb3" opacity="1" fill-opacity="0" stroke="#000000" stroke-width="2" stroke-opacity="1"></use></g></g><g><use xlink:href="#koM3YZCh3" opacity="1" fill="#ffffff" fill-opacity="1"></use><g><use xlink:href="#koM3YZCh3" opacity="1" fill-opacity="0" stroke="#000000" stroke-width="2" stroke-opacity="1"></use></g></g><g><use xlink:href="#b29aAw4UpO" opacity="1" fill="#ffffff" fill-opacity="1"></use><g><use xlink:href="#b29aAw4UpO" opacity="1" fill-opacity="0" stroke="#000000" stroke-width="2" stroke-opacity="1"></use></g></g><g><use xlink:href="#b4nL1u6Ud2" opacity="1" fill="#ffffff" fill-opacity="1"></use><g><use xlink:href="#b4nL1u6Ud2" opacity="1" fill-opacity="0" stroke="#000000" stroke-width="2" stroke-opacity="1"></use></g></g><g><use xlink:href="#b6k2Ab1UE" opacity="1" fill="#ffffff" fill-opacity="1"></use><g><use xlink:href="#b6k2Ab1UE" opacity="1" fill-opacity="0" stroke="#000000" stroke-width="2" stroke-opacity="1"></use></g></g></g></g></svg>