<?xml version="1.0" encoding="UTF-8" standalone="no"?>
<!DOCTYPE svg PUBLIC "-//W3C//DTD SVG 1.1//EN" "http://www.w3.org/Graphics/SVG/1.1/DTD/svg11.dtd">
<svg version="1.1" xmlns="http://www.w3.org/2000/svg" xmlns:xlink="http://www.w3.org/1999/xlink" preserveAspectRatio="xMidYMid meet" viewBox="0 0 640 640" width="640" height="640"><defs><path d="M90.47 520.9C95.06 509.72 97.93 502.73 99.07 499.94C101.07 495.08 104.65 491.03 109.24 488.47C112.79 486.49 116.92 484.18 120.61 482.11C124.81 479.77 128.5 476.62 131.48 472.84C134.37 469.16 137.94 464.64 140.68 461.16C144.01 456.94 149.09 454.47 154.47 454.47C156.7 454.47 155.98 454.47 158.49 454.47C163.26 454.47 168.01 453.97 172.66 452.99C172.94 452.93 173.62 452.78 174.71 452.55L195.18 448.78C200.68 446.4 204.12 444.91 205.49 444.31C205.49 444.31 217.37 439.19 217.37 439.19C218.02 438.91 219.66 438.2 222.28 437.07C226.9 434.9 229.78 433.53 230.94 432.99C234.53 431.29 237.53 428.54 239.52 425.1C242.41 420.1 247.58 411.15 250.36 406.34C252.73 402.25 256.15 398.88 260.28 396.57C261.5 395.89 259.58 396.96 260.98 396.18C264.52 394.2 267.43 391.29 269.41 387.75C270.85 385.19 271.75 383.58 273.1 381.18C275.39 377.09 278.81 373.75 282.96 371.56C287.24 369.31 292.96 366.31 297.04 364.15C301.83 361.63 305.9 357.94 308.86 353.41C310.44 350.99 311.08 350.01 312.76 347.44C315.42 343.38 318.44 339.57 321.8 336.07C324.3 333.47 325.8 331.91 328.06 329.55C332.17 325.27 335.6 320.37 338.2 315.03C340.48 310.36 343.48 304.22 345.78 299.51C348.12 294.73 352.97 291.7 358.29 291.7C364 291.7 375.44 291.7 381.9 291.7C385.15 291.7 388.37 291.06 391.37 289.81C388.34 291.07 390.02 290.37 396.42 287.7C396.5 287.67 406.07 284.43 406.15 284.4C411.28 282.31 407.36 284.81 412.85 285.55C425.18 287.22 428.94 287.72 424.12 287.07C428.89 287.72 433.75 287.41 438.4 286.17C442.24 285.14 446.74 283.94 450.59 282.92C455.23 281.68 459.68 279.79 463.79 277.3C465.97 275.99 464.44 276.91 466.15 275.88C471.84 272.44 477.17 268.44 482.05 263.93C483.15 262.91 480.59 265.29 482.05 263.93C485.47 260.78 490.28 259.63 494.75 260.91C496.38 261.37 493.28 260.49 494.71 260.9C500.11 262.44 505.2 264.95 509.71 268.3C512.87 270.64 513.51 271.12 516.17 273.09C521.65 277.15 529.2 276.93 534.42 272.54C536.28 270.97 536.8 270.53 539.63 268.16C542.32 265.9 545.64 264.53 549.13 264.22C551.42 264.03 551.28 264.04 553.16 263.87C557.91 263.46 562.64 264.85 566.43 267.75C569.05 269.77 568.7 269.5 570.74 271.07C576.28 275.33 579.53 281.93 579.53 288.91C579.53 322.28 579.53 405.69 579.53 539.14L86.82 539.14L90.47 520.9Z" id="aV4dH0mmY"></path><path d="" id="e2HL5dJmW4"></path><path d="M128.21 476.11L141.97 459.46C148.3 456.37 152.26 454.44 153.84 453.67C154.53 453.33 154.94 452.6 154.87 451.84C154.67 449.84 154.54 448.4 154.43 447.23C154.16 444.49 151.4 442.71 148.8 443.62C147.8 443.97 145.29 444.84 141.29 446.24C134.24 451.09 129.83 454.13 128.07 455.34C126.99 456.08 125.51 455.8 124.78 454.71C124.35 454.07 126.1 456.69 126.1 456.69C123.84 453.29 122.45 449.38 122.08 445.31C121.5 439 120.85 431.89 120.4 426.98C119.6 418.19 119.7 409.33 120.69 400.55C121.08 397.11 121.67 391.95 122.29 386.5C122.53 384.41 123.12 382.38 124.05 380.49C125.18 378.19 126 376.52 126.84 374.82C128.65 371.13 128.66 366.8 126.86 363.11C126.56 362.49 125.8 360.95 124.6 358.48L119.19 351.09L104.08 334.17L82.49 352.68L92.38 362.72C94.06 364.76 95.12 366.04 95.54 366.55C97.98 369.52 98.42 373.66 96.65 377.08C96 378.33 97.15 376.11 96.55 377.27C94.47 381.28 93.25 385.67 92.96 390.17C92.88 391.36 92.69 394.34 92.38 399.12C92.95 401.72 93.3 403.34 93.44 403.99C93.44 403.99 94.91 410.42 94.91 410.42C95.26 411.9 94.82 410.03 94.98 410.74C94.98 410.74 98.07 424.91 98.07 424.91C98.74 428.23 100.4 436.52 103.06 449.78C104.06 456.74 104.68 461.08 104.93 462.82C105.22 464.88 105.08 466.98 104.49 468.97C104.32 469.56 104.6 468.61 104.4 469.28C103.9 471 103.98 472.84 104.62 474.52C104.93 475.34 104.46 474.09 104.66 474.63C105.67 477.25 107.25 479.62 109.28 481.55C109.82 482.07 111.18 483.37 113.36 485.44L128.21 476.11Z" id="d1hAMgpsBb"></path><path d="" id="b5kYbEMAsf"></path><path d="M94.61 305.04C105.01 305.04 111.51 305.04 114.11 305.04C117.62 305.04 121.05 306.02 124.03 307.86C128.27 310.49 136.76 315.74 141.09 318.42C143.33 319.81 146.29 318.97 147.46 316.6C149.54 312.43 154.72 302.01 163.02 285.33C129.31 274.92 108.24 268.41 99.81 265.8C98.22 265.31 97.13 263.84 97.13 262.17C97.13 261.58 97.13 260.12 97.13 257.78L37.08 248.99C33.86 254.67 31.85 258.21 31.04 259.63C30.16 261.18 29.51 262.86 29.12 264.6C28.75 266.19 27.84 270.17 26.38 276.54C27.01 281.99 27.4 285.4 27.55 286.77C28.08 291.41 30.48 295.64 34.2 298.49C35.15 299.22 37.54 301.05 41.36 303.97C41.36 303.97 41.36 303.97 41.36 303.97C45.99 307.91 50.03 312.48 53.39 317.54C58.42 325.14 71.1 344.28 76.79 352.87C77.74 354.3 79.72 354.59 81.04 353.5C84.69 350.45 93.84 342.83 108.46 330.63L94.61 305.04Z" id="b36yorOStG"></path><path d="M147.28 316.25C150.43 316.99 152.4 317.46 153.19 317.65C156.3 318.38 159.09 320.1 161.14 322.55C161.73 323.25 160.12 321.33 160.65 321.96C162.86 324.6 163.98 327.98 163.77 331.42C163.71 332.49 163.71 332.54 163.61 334.16C163.61 334.16 163.29 339.37 163.29 339.37C163.1 342.49 163.06 343.09 162.96 344.67C162.54 351.49 163.05 358.33 164.47 365.01C165.16 368.24 165.61 370.34 166.43 374.19C167.42 378.83 168.83 383.37 170.64 387.75C171.6 390.08 170.45 387.29 171.08 388.82C171.08 388.82 179.83 409.93 179.83 409.93C181.08 412.94 184.2 420.46 189.2 432.5C188.92 433.25 188.75 433.72 188.68 433.9C187.76 436.36 187.87 439.09 189 441.46C189.1 441.66 189.35 442.18 189.74 443C191.26 444.46 192.21 445.38 192.59 445.74C194.32 447.41 196.89 447.86 199.08 446.87C200.8 446.1 202.49 445.34 204.25 444.55C204.25 444.55 211.14 441.43 211.14 441.43C212.2 440.94 211.51 441.26 212.46 440.83C212.46 440.83 220.43 437.14 220.43 437.14C220.97 436.89 222.33 436.25 224.5 435.23L236.45 429.25C236.26 427.27 236.14 426.03 236.09 425.54C235.78 422.4 232.41 420.57 229.62 422.01C227.68 423.01 230 421.81 228.64 422.52C223.02 425.42 216.57 426.3 210.38 425.02C209.14 424.77 211.14 425.18 208.93 424.73C206.04 424.13 203.74 421.93 203.03 419.06C202.82 418.22 202.29 416.12 201.45 412.75C199.41 406.68 198.14 402.89 197.63 401.37C195.35 394.58 193.83 387.56 193.09 380.43C192.54 375.2 191.67 366.81 191.04 360.73C191.04 360.73 190.37 347.74 190.37 347.74C190.37 344.39 190.37 342.49 190.37 339.55C190.37 339.55 191.24 322.49 191.24 322.49C191.4 320.88 191.1 323.83 191.28 322.03C191.8 316.99 191.75 311.91 191.14 306.87C190.99 305.6 191.32 308.39 191.14 306.87C190.65 302.82 188.4 299.2 184.98 296.96C182.68 295.45 180.82 294.24 178.44 292.68C175.12 290.51 171.59 288.68 167.9 287.23C167.26 286.98 165.66 286.34 163.1 285.33L147.28 316.25Z" id="bvCX7H5gX"></path><path d="M97.36 257.03C99.13 247.84 100.24 242.09 100.68 239.79C101.1 237.66 101.92 235.62 103.11 233.8C104.45 231.75 107.8 226.64 113.16 218.47C124.75 208.08 131.99 201.59 134.89 198.99C138.94 195.36 144.09 193.2 149.52 192.85C151.48 192.73 149.14 192.87 151.15 192.75C151.15 192.75 167.45 192.23 167.45 192.23C171 192.23 176.1 192.23 180.3 192.23C183.54 192.23 186.76 191.78 189.87 190.89C193.71 189.79 201.89 187.45 206.07 186.25C207.82 185.75 209 184.12 208.93 182.3C208.83 179.78 208.59 173.48 208.21 163.4C208.07 163.4 207.99 163.4 207.95 163.4C200.35 163.4 192.81 164.75 185.68 167.4C184.58 167.81 181.83 168.83 177.43 170.47C174.43 169.48 172.56 168.87 171.81 168.63C168.8 167.64 165.72 166.9 162.6 166.4C161.79 166.28 159.77 165.96 156.55 165.45L154.35 163.16C143.78 155.97 137.18 151.48 134.53 149.68C134.1 149.38 133.56 149.27 133.04 149.37C131 149.77 129.54 150.06 128.46 150.27C128.46 150.27 117.44 153.1 117.44 153.1C115.61 153.68 116.71 153.33 115.17 153.82C115.17 153.82 101.71 159.03 101.71 159.03C96.72 161.32 97 161.19 94.18 162.48C82.76 167.72 72.87 175.79 65.45 185.93C64.05 187.83 65.05 186.47 62.12 190.47C59.7 193.78 57.56 197.28 55.71 200.95C53.76 204.81 53.33 205.67 52.05 208.22C52.05 208.22 40.63 232.7 40.63 232.7C39.55 235.2 39.06 236.36 37.33 240.38C36.01 243.46 36.07 246.96 37.5 249.99C37.5 249.99 35.62 246 35.71 246.2C36.83 248.56 39.08 250.18 41.67 250.48C49.1 251.36 67.66 253.54 97.36 257.03Z" id="f6VtYNR5C5"></path><path d="M155.01 163.29L157.51 159.45L159.31 156.71C159.74 155.95 160.01 155.48 160.12 155.29C161.9 152.15 166.41 152.1 168.25 155.21C168.25 155.21 168.25 155.21 168.25 155.21C170.1 156.55 171.26 157.38 171.73 157.72C173.24 158.81 175.18 159.15 176.97 158.63C177.25 158.55 175.16 159.15 175.42 159.08C177.28 158.54 178.84 157.27 179.75 155.56C179.77 155.51 179.84 155.4 179.93 155.21C180.03 155.01 180.09 154.89 180.11 154.84C180.78 153.41 181.84 152.2 183.16 151.35C183.44 151.17 182.52 151.76 182.87 151.54C183.91 150.87 184.54 149.72 184.54 148.48C184.54 148.43 184.54 149.36 184.54 149.08C184.54 148.55 184.8 148.06 185.24 147.76C185.54 147.56 184.7 148.13 184.74 148.1C185.99 147.25 186.74 145.83 186.74 144.32C186.74 144.1 186.74 145.06 186.74 144.64C186.74 143.75 187.12 142.89 187.79 142.29C188.02 142.09 187.59 142.48 187.8 142.29C188.49 141.67 189.49 141.52 190.34 141.91C190.9 142.18 190.28 141.88 190.61 142.04C191.56 142.49 192.58 141.57 192.24 140.58C191.8 139.3 190.7 136.09 188.95 130.96L192.33 118.91C192.33 118.91 192.33 118.91 192.33 118.91C195.78 118.91 198.54 116.04 198.4 112.6C198.35 111.36 198.42 112.96 198.36 111.47C198.23 108.2 197.01 105.06 194.9 102.56C194.11 101.62 195.54 103.32 194.89 102.54C192.3 99.48 189 97.1 185.27 95.61C183.45 94.88 182.67 94.57 180.61 93.75C177.65 92.56 174.49 91.96 171.31 91.96C169.67 91.96 171.17 91.96 169.92 91.96C165.44 91.96 161.02 92.98 157 94.94C156 95.43 158.08 94.41 156.82 95.03C153.74 96.53 151.38 99.19 150.27 102.43C149.69 104.12 149.01 106.09 148.26 108.27C148.26 108.27 146.63 113.53 146.63 113.53C146.1 115.43 146.29 114.74 146.02 115.7C144.67 120.55 144.14 125.58 144.44 130.6C144.5 131.63 144.65 134.19 144.9 138.28C141.61 143.06 139.55 146.04 138.73 147.23C137.81 148.57 136.29 149.36 134.68 149.36C134.68 149.36 134.68 149.36 134.68 149.36L155.01 163.29Z" id="f2VWk7yQ61"></path><path d="M128.49 218.58L126.71 206.96C132.08 202.21 135.44 199.24 136.79 198.05C139.23 195.9 142.18 194.42 145.37 193.75C146.03 193.61 147.67 193.27 150.31 192.72L152.59 210.23L155.73 223.98L131.04 228.34L128.49 218.58Z" id="b2vomTrTO"></path><path d="M138.85 247.34C141.95 261.17 143.89 269.81 144.67 273.26C144.67 273.26 145.01 275.41 145.01 275.41C145.08 276.09 145.01 275.37 145.03 275.63C145.22 277.58 146.48 279.27 148.3 280.01C148.38 280.04 147.39 279.64 147.9 279.85C147.9 279.85 149.44 280.45 149.44 280.45C154.36 282.33 167.97 287.53 172.8 289.38C173.51 289.65 174.32 289.36 174.69 288.7C175.09 288 175.17 287.84 175.46 287.34C176.12 286.17 175.68 284.68 174.49 284.05C172.97 283.25 169.17 281.25 163.09 278.05C161.81 277.14 161.01 276.57 160.69 276.34C159.46 275.46 158.6 274.16 158.26 272.68C157.93 271.2 157.43 268.97 157.09 267.47C157.09 267.47 156.11 263.11 156.11 263.11C155.79 261.71 155.01 258.2 153.75 252.59C153.36 248.63 153.12 246.15 153.03 245.15C153.03 245.15 152.91 242.74 152.91 242.74C152.91 242.14 152.91 241.05 152.91 240.32C152.91 240.32 152.91 239.13 152.91 239.13C152.91 238.14 152.91 236.28 152.91 235.42C152.91 235.42 152.81 232.98 152.81 232.98C152.72 231.86 152.5 229.06 152.15 224.58L133.64 227.4C134.31 231.51 134.73 234.07 134.9 235.1C135.31 237.64 136 240.13 136.95 242.53C137.2 243.17 137.84 244.77 138.85 247.34Z" id="drE4VHMEp"></path><path d="M376.22 291.97L396.13 287.97C397.96 286.59 399.11 285.73 399.56 285.38C401.48 283.94 402.24 281.43 401.46 279.17C400.92 277.63 400.37 276.03 399.77 274.3C399.13 272.44 398.97 270.45 399.31 268.51C399.94 264.85 401.54 255.7 404.1 241.07C405.61 234.05 406.55 229.66 406.93 227.91C407.99 222.97 408.34 217.91 407.98 212.87C407.88 211.42 407.61 207.78 407.2 201.97C406.82 200.39 406.58 199.41 406.48 199.01C406.08 197.34 406.13 195.6 406.61 193.95C406.99 192.65 406.38 194.74 406.51 194.31C406.51 194.31 410.2 180.53 410.2 180.53C410.33 179.99 410.66 178.63 411.18 176.47L386.4 167.47C384.99 170.8 384.1 172.88 383.75 173.72C382.28 177.2 381.28 180.87 380.78 184.62C380.66 185.49 380.88 183.83 380.72 185.04C380.38 187.61 380.72 190.23 381.71 192.62C382.03 193.39 381.34 191.73 381.63 192.42C382.73 195.09 383.3 197.95 383.3 200.84C383.3 202.79 383.3 207.67 383.3 215.47C383.3 232.17 383.3 242.6 383.3 246.78C383.3 251.9 382.91 257.01 382.12 262.06C381.74 264.54 381.25 267.7 380.74 271C380.39 273.26 379.36 275.35 377.78 277C377.47 277.33 378.83 275.9 378.48 276.26C376.99 277.83 375.17 279.04 373.16 279.82C372.07 280.24 369.34 281.29 364.98 282.97C360.56 284.5 357.81 285.45 356.7 285.83C354.14 286.72 353.67 290.14 355.9 291.68C355.98 291.74 354.99 291.05 356.1 291.83C356.23 291.92 356.39 291.97 356.55 291.97C359.17 291.97 365.73 291.97 376.22 291.97Z" id="c4xB9inBnh"></path><path d="M389.49 128.56L424 106.52C434.87 114.34 441.66 119.22 444.37 121.18C448.44 124.11 450.69 128.95 450.3 133.94C449.85 139.73 449.52 142.97 449.32 143.65C449.26 143.84 448.58 150.46 448.7 156.95C448.74 159.17 448.75 164.71 448.72 173.58C448.71 176.09 446.67 178.12 444.16 178.12C440.33 178.12 431.42 178.12 427.1 178.12C425.89 178.12 424.85 177.26 424.61 176.08C423.25 169.22 420.62 155.97 419.51 150.44C419.18 148.75 416.74 148.81 416.49 150.51C415.69 155.87 413.91 167.74 412.94 174.23C412.7 175.82 411.06 176.79 409.55 176.23C404.83 174.48 392.92 170.06 388.03 168.24C386.84 167.8 386.18 166.53 386.5 165.3C388 159.53 391.44 146.32 392.82 141.03C393.58 138.1 393.17 134.98 391.66 132.35C391.37 131.85 390.65 130.58 389.49 128.56Z" id="eUZDz9opK"></path><path d="M427.47 196.33C427.79 199.01 429.14 201.46 431.24 203.15C431.71 203.53 432.89 204.49 434.77 206.01L440.55 212.79C456.67 236.51 466.75 251.33 470.78 257.26C471.16 257.82 471.19 258.55 470.86 259.14C470.1 260.51 469.02 262.45 468.42 263.51C467.51 265.15 466.31 266.6 464.88 267.8C464.04 268.52 463.48 268.99 462.58 269.74C461.42 270.72 460.99 272.33 461.51 273.76C461.76 274.45 461.82 274.59 462.11 275.4C462.45 276.33 463.57 276.69 464.39 276.12C466.48 274.66 471.7 271.01 480.06 265.18C484.43 262.36 487.16 260.6 488.25 259.89C489.32 259.2 489.86 257.92 489.61 256.66C489.55 256.37 489.4 255.64 489.16 254.46C487.87 253.55 487.06 252.97 486.74 252.74C485.95 252.18 485.27 251.47 484.74 250.66C481.39 245.45 475.13 235.73 472.53 231.69C469.51 227 467.13 221.93 465.47 216.6C464.93 214.89 465.15 215.59 464.45 213.34C463.35 209.82 461.51 206.59 459.07 203.84C457.33 201.89 455.28 199.58 453.41 197.47C451.44 195.26 450.13 192.54 449.64 189.63C449.38 188.09 448.72 184.26 447.67 178.12L426 178.87C426.16 181.81 426.26 183.65 426.3 184.38C426.3 184.38 427.03 192.78 427.03 192.78C427.22 194.32 427.28 194.78 427.47 196.33Z" id="b2dWGyXUGK"></path><path d="M423.54 106.52C423.7 106.21 423.79 106.01 423.83 105.93C424.5 104.62 424.26 103.03 423.24 101.97C421.3 99.97 417.46 96.01 415.59 94.07C415.59 94.07 411.33 90.01 411.33 90.01C408.4 87.4 401.05 80.89 389.29 70.47C380.2 66.23 374.52 63.58 372.25 62.52C368.1 60.58 363.47 59.9 358.93 60.54C355.15 61.07 346.65 62.28 341.85 62.96C340.7 63.12 339.7 63.82 339.14 64.83C337.91 67.1 334.81 72.75 329.86 81.81C329.93 82.01 329.98 82.13 330 82.18C330.5 83.47 330.07 84.93 328.97 85.75C328.21 86.31 327.4 86.91 326.55 87.55C325.88 88.04 325.91 89.05 326.61 89.5C328.24 90.56 332.33 93.19 338.86 97.41C341.56 95.05 343.25 93.58 343.92 92.99C344.62 92.38 345.64 92.3 346.42 92.81C349.09 94.53 356.63 99.39 359.51 101.25C359.51 101.25 360.03 101.56 360.03 101.56C363.58 103.54 367.58 105.78 369.53 106.88C374.97 109.92 379.66 114.13 383.28 119.2C384.08 120.33 386.08 123.13 389.29 127.62L423.54 106.52Z" id="a2synlbdya"></path><path d="M330.6 80.51L325.73 78.94C325.1 78.58 324.71 78.36 324.55 78.28C321.85 76.77 318.51 78.65 318.41 81.74C318.41 81.74 318.41 81.74 318.41 81.74C317.58 83.48 317.06 84.57 316.85 85C316.15 86.47 314.84 87.55 313.26 87.97C313.03 88.03 314.85 87.55 314.63 87.61C313.01 88.04 311.28 87.79 309.84 86.92C309.81 86.91 309.74 86.87 309.64 86.8C309.52 86.73 309.45 86.68 309.42 86.66C308.28 85.9 306.96 85.48 305.59 85.44C305.32 85.44 306.29 85.46 305.94 85.45C304.88 85.43 303.9 84.84 303.36 83.92C303.35 83.9 303.78 84.64 303.67 84.45C303.44 84.05 303.03 83.8 302.58 83.78C302.27 83.76 303.16 83.81 303.13 83.81C301.82 83.74 300.64 83.02 299.99 81.89C299.91 81.75 300.37 82.54 300.2 82.25C299.81 81.58 299.15 81.12 298.39 80.98C298.13 80.93 298.66 81.03 298.43 80.98C297.63 80.84 296.82 81.16 296.34 81.82C296.03 82.25 296.39 81.75 296.21 82C295.67 82.74 294.51 82.48 294.35 81.58C294.15 80.49 293.66 77.75 292.87 73.38L285.36 66.24C285.36 66.24 285.36 66.24 285.36 66.24C282.77 67.74 279.46 66.77 278.08 64.13C277.63 63.27 278.42 64.77 277.87 63.72C276.55 61.21 276.15 58.33 276.71 55.55C276.92 54.56 276.5 56.61 276.66 55.8C277.36 52.39 278.87 49.21 281.07 46.51C282.13 45.2 282.56 44.69 283.76 43.2C285.51 41.06 287.63 39.26 290.02 37.88C291.25 37.17 290.13 37.81 291.06 37.28C294.43 35.33 298.18 34.15 302.05 33.8C302.99 33.72 300.93 33.9 302.12 33.79C305.08 33.53 308.01 34.46 310.28 36.37C311.38 37.3 312.52 38.26 313.96 39.48C313.96 39.48 317.52 42.67 317.52 42.67C318.69 43.78 318.02 43.15 318.58 43.68C321.73 46.69 324.33 50.22 326.27 54.12C326.63 54.84 327.52 56.65 328.95 59.53L340.03 63.93L330.6 80.51Z" id="cyQQs9uvk"></path><path d="M349.85 73.69C351.42 70.67 354.75 69 358.1 69.57C359.08 69.73 358.64 69.66 360.18 69.92C362.02 70.22 363.77 70.94 365.3 72C365.97 72.47 367.65 73.64 370.35 75.52L376.16 96.3L352.48 100.95L347.56 90.31C347.33 86.45 347.18 84.05 347.12 83.08C346.97 80.68 347.48 78.27 348.59 76.13C349.37 74.63 349.26 74.83 349.85 73.69Z" id="f1G4HYNpho"></path><path d="M376.7 125.07C376.89 127.05 377.39 128.99 378.19 130.81C378.29 131.04 377.82 129.97 378.03 130.45C378.46 131.44 378.62 132.52 378.49 133.6C378.42 134.15 378.51 133.39 378.47 133.75C378.26 135.49 378.36 137.27 378.78 138.98C379.54 142.1 381.44 149.9 384.48 162.39L385.98 167.47L381.82 178.56L379.82 188.06L376.98 193.06L374.82 188.06L376.98 171.56L368.98 141.78C368.21 138.28 367.73 136.1 367.54 135.23C367.06 133.05 366.4 130.92 365.58 128.85C363.92 124.7 359.72 114.14 357.94 109.69C357.94 109.69 356.69 106.46 356.69 106.46C356.4 105.67 355.66 103.7 354.47 100.56L374.82 96.56C374.82 99.34 374.82 101.08 374.82 101.78C374.82 101.78 375.13 108.48 375.13 108.48C375.5 112.4 376.32 121.08 376.7 125.07Z" id="f6zoE3TYU"></path><path d="M313.26 115.04C311.66 115.92 310.37 117.26 309.56 118.89C309.48 119.06 310.58 116.85 310.52 116.96C309.64 118.73 308.11 120.1 306.25 120.77C306.1 120.83 307.94 120.16 307.63 120.27C306.2 120.79 304.8 121.42 303.45 122.14C300.75 123.6 293.98 127.24 283.14 133.06C279.27 129.19 276.84 126.77 275.88 125.8C275.35 125.27 275.5 124.38 276.17 124.06C281.29 121.56 294.01 115.36 298.82 113.01C300.8 112.05 302.6 110.76 304.16 109.2C306.09 107.28 305.07 108.3 305.88 107.48C305.88 107.48 322.37 92.36 322.37 92.36C322.84 91.96 324.02 90.97 325.9 89.39L338.48 97.39C332.26 102.48 328.37 105.67 326.82 106.94C325.29 108.19 323.66 109.29 321.94 110.24C319.71 111.47 315.51 113.79 313.26 115.04Z" id="cpNykV7JD"></path><path d="M208.93 184C218.29 180.1 224.14 177.66 226.48 176.68C226.48 176.68 230.7 174.79 230.7 174.79C231.92 174.21 234.48 172.99 235.94 172.29C236.51 172.02 237.09 171.79 237.69 171.61C238.4 171.4 239.15 171.18 239.74 171C240.71 170.71 241.55 170.08 242.1 169.23C242.27 168.95 242.71 168.27 243.41 167.19C257.55 153.22 266.39 144.49 269.93 141C271.33 139.62 273.11 138.69 275.04 138.34C275.39 138.28 274.99 138.35 275.72 138.22C276.43 138.09 277.12 137.88 277.77 137.58C279.12 136.98 281.48 135.92 282.66 135.4C283.88 134.85 284.94 134 285.74 132.93C286.35 132.11 287.72 130.28 288.52 129.21C288.52 129.21 289.03 128.43 289.03 128.43C289.29 127.98 289.71 127.24 289.93 126.84C290.07 126.59 289.85 126.3 289.57 126.37C289.13 126.5 288.57 126.65 288.14 126.77C287.61 126.91 287.12 127.15 286.68 127.48C285.9 128.06 283.96 129.52 280.85 131.84C285.04 127.86 287.66 125.37 288.7 124.37C289.05 124.04 289.26 123.6 289.3 123.12C289.33 122.8 289.33 122.77 289.35 122.49C289.39 122.03 288.93 121.68 288.5 121.84C288.2 121.94 288.19 121.95 287.88 122.06C287.32 122.26 286.81 122.57 286.38 122.97C285.39 123.89 282.93 126.19 278.99 129.87C283.41 125 286.17 121.96 287.28 120.75C287.87 120.1 288.27 119.31 288.45 118.45C288.52 118.12 288.46 118.41 288.53 118.08C288.65 117.5 288.1 117 287.54 117.18C287.15 117.31 287.25 117.27 286.87 117.4C286.03 117.66 285.27 118.15 284.69 118.82C283.11 120.61 279.38 124.85 277.83 126.61C277.56 126.91 277.07 126.66 277.17 126.27C277.66 124.32 278.61 120.54 279.06 118.73C279.23 118.06 278.43 117.57 277.92 118.03C277.35 118.53 276.89 118.94 276.21 119.54C275.48 120.18 274.92 121 274.58 121.92C274.41 122.37 273.99 123.49 273.33 125.3L265.96 133.56L239.92 153.47C239.5 153.75 239.23 153.93 239.13 154C236.21 155.96 233.02 157.46 229.66 158.45C226.9 159.27 219.99 161.32 208.93 164.61L208.93 184Z" id="dgPt2gDHZ"></path><path d="M271.3 127.62L270.23 129.57L269.39 132.48C269.01 133.07 268.77 133.44 268.67 133.59C268.26 134.23 267.29 134.19 266.94 133.5C266.64 132.92 267.3 134.19 267.19 133.98C266.13 131.91 266.33 129.42 267.72 127.56C267.72 127.56 267.73 127.55 267.73 127.54L269.92 125.39L273.26 124.76" id="a1b4WIrR2b"></path></defs><g><g><g><use xlink:href="#aV4dH0mmY" opacity="1" fill="#ffffff" fill-opacity="1"></use><g><use xlink:href="#aV4dH0mmY" opacity="1" fill-opacity="0" stroke="#000000" stroke-width="3" stroke-opacity="1"></use></g></g><g><g><use xlink:href="#e2HL5dJmW4" opacity="1" fill-opacity="0" stroke="#4b2222" stroke-width="3" stroke-opacity="1"></use></g></g><g><use xlink:href="#d1hAMgpsBb" opacity="1" fill="#ffffff" fill-opacity="1"></use><g><use xlink:href="#d1hAMgpsBb" opacity="1" fill-opacity="0" stroke="#000000" stroke-width="3" stroke-opacity="1"></use></g></g><g><g><use xlink:href="#b5kYbEMAsf" opacity="1" fill-opacity="0" stroke="#000000" stroke-width="3" stroke-opacity="1"></use></g></g><g><use xlink:href="#b36yorOStG" opacity="1" fill="#ffffff" fill-opacity="1"></use><g><use xlink:href="#b36yorOStG" opacity="1" fill-opacity="0" stroke="#000000" stroke-width="3" stroke-opacity="1"></use></g></g><g><use xlink:href="#bvCX7H5gX" opacity="1" fill="#ffffff" fill-opacity="1"></use><g><use xlink:href="#bvCX7H5gX" opacity="1" fill-opacity="0" stroke="#000000" stroke-width="3" stroke-opacity="1"></use></g></g><g><use xlink:href="#f6VtYNR5C5" opacity="1" fill="#ffffff" fill-opacity="1"></use><g><use xlink:href="#f6VtYNR5C5" opacity="1" fill-opacity="0" stroke="#000000" stroke-width="3" stroke-opacity="1"></use></g></g><g><use xlink:href="#f2VWk7yQ61" opacity="1" fill="#ffffff" fill-opacity="1"></use><g><use xlink:href="#f2VWk7yQ61" opacity="1" fill-opacity="0" stroke="#000000" stroke-width="3" stroke-opacity="1"></use></g></g><g><use xlink:href="#b2vomTrTO" opacity="1" fill="#ffffff" fill-opacity="1"></use><g><use xlink:href="#b2vomTrTO" opacity="1" fill-opacity="0" stroke="#000000" stroke-width="3" stroke-opacity="1"></use></g></g><g><use xlink:href="#drE4VHMEp" opacity="1" fill="#ffffff" fill-opacity="1"></use><g><use xlink:href="#drE4VHMEp" opacity="1" fill-opacity="0" stroke="#000000" stroke-width="3" stroke-opacity="1"></use></g></g><g><use xlink:href="#c4xB9inBnh" opacity="1" fill="#ffffff" fill-opacity="1"></use><g><use xlink:href="#c4xB9inBnh" opacity="1" fill-opacity="0" stroke="#000000" stroke-width="3" stroke-opacity="1"></use></g></g><g><use xlink:href="#eUZDz9opK" opacity="1" fill="#ffffff" fill-opacity="1"></use><g><use xlink:href="#eUZDz9opK" opacity="1" fill-opacity="0" stroke="#000000" stroke-width="3" stroke-opacity="1"></use></g></g><g><use xlink:href="#b2dWGyXUGK" opacity="1" fill="#ffffff" fill-opacity="1"></use><g><use xlink:href="#b2dWGyXUGK" opacity="1" fill-opacity="0" stroke="#000000" stroke-width="3" stroke-opacity="1"></use></g></g><g><use xlink:href="#a2synlbdya" opacity="1" fill="#ffffff" fill-opacity="1"></use><g><use xlink:href="#a2synlbdya" opacity="1" fill-opacity="0" stroke="#000000" stroke-width="3" stroke-opacity="1"></use></g></g><g><use xlink:href="#cyQQs9uvk" opacity="1" fill="#ffffff" fill-opacity="1"></use><g><use xlink:href="#cyQQs9uvk" opacity="1" fill-opacity="0" stroke="#000000" stroke-width="3" stroke-opacity="1"></use></g></g><g><use xlink:href="#f1G4HYNpho" opacity="1" fill="#ffffff" fill-opacity="1"></use><g><use xlink:href="#f1G4HYNpho" opacity="1" fill-opacity="0" stroke="#000000" stroke-width="3" stroke-opacity="1"></use></g></g><g><use xlink:href="#f6zoE3TYU" opacity="1" fill="#ffffff" fill-opacity="1"></use><g><use xlink:href="#f6zoE3TYU" opacity="1" fill-opacity="0" stroke="#000000" stroke-width="3" stroke-opacity="1"></use></g></g><g><use xlink:href="#cpNykV7JD" opacity="1" fill="#ffffff" fill-opacity="1"></use><g><use xlink:href="#cpNykV7JD" opacity="1" fill-opacity="0" stroke="#000000" stroke-width="3" stroke-opacity="1"></use></g></g><g><use xlink:href="#dgPt2gDHZ" opacity="1" fill="#ffffff" fill-opacity="1"></use><g><use xlink:href="#dgPt2gDHZ" opacity="1" fill-opacity="0" stroke="#000000" stroke-width="3" stroke-opacity="1"></use></g></g><g><use xlink:href="#a1b4WIrR2b" opacity="1" fill="#ffffff" fill-opacity="1"></use><g><use xlink:href="#a1b4WIrR2b" opacity="1" fill-opacity="0" stroke="#000000" stroke-width="3" stroke-opacity="1"></use></g></g></g></g></svg>